<svg width="29" height="33" viewBox="0 0 29 33" fill="none" xmlns="http://www.w3.org/2000/svg">
<g id="Black">
<path id="Vector" d="M13.7976 0.12594C13.6429 0.203284 13.4496 0.357971 13.3658 0.467542C13.0628 0.860706 13.0113 1.09274 13.0113 1.96285V2.78141L12.6697 2.45914C12.4828 2.27867 12.2185 2.09821 12.0832 2.05309C11.6964 1.92418 11.1421 1.99508 10.7812 2.22067C10.1818 2.58805 9.93687 3.44528 10.2334 4.08336C10.3043 4.22516 10.9552 4.97926 11.6835 5.75914L13.0113 7.17711L12.9919 9.22672L12.9791 11.2763L12.4634 11.4826C11.922 11.7017 11.155 12.1787 10.8972 12.4494L10.749 12.6041L8.95074 11.5728L7.15894 10.5351L6.58531 8.65953C5.96656 6.60992 5.86343 6.40367 5.34781 6.13297C5.0191 5.95895 4.43257 5.93317 4.09097 6.07496C3.76871 6.21032 3.43355 6.53903 3.31109 6.84196C3.16929 7.17711 3.16929 7.72496 3.30464 8.10524L3.40777 8.38239L3.25953 8.29215C3.18218 8.23414 2.84703 8.04078 2.51187 7.84742C1.95113 7.5316 1.87378 7.50582 1.48062 7.50582C0.552495 7.49938 -0.0598096 8.1568 0.00464353 9.07848C0.0497607 9.70367 0.268901 9.98082 1.14546 10.5029C1.83511 10.9154 1.86734 10.9412 1.69332 10.9798C0.739409 11.1861 0.288237 11.6759 0.288237 12.4945C0.288237 12.9457 0.430034 13.3066 0.713628 13.5709C0.932769 13.7771 1.40972 13.9769 1.69332 13.9769C1.82867 13.9769 2.76324 13.7836 3.76871 13.5515C4.77417 13.3195 5.63785 13.139 5.68296 13.1519C5.72808 13.1648 6.54019 13.616 7.48765 14.1638L9.215 15.1629L9.16343 15.5496C9.13121 15.7687 9.11187 16.1877 9.11187 16.4906C9.11187 16.7935 9.13121 17.2125 9.16343 17.4316L9.215 17.8183L7.48765 18.8173C6.54019 19.3652 5.72808 19.8164 5.68296 19.8293C5.63785 19.8422 4.77417 19.6617 3.76871 19.4297C2.76324 19.1976 1.82867 19.0043 1.69332 19.0043C1.40972 19.0043 0.932769 19.2041 0.713628 19.4103C0.430034 19.6746 0.288237 20.0355 0.288237 20.4867C0.288237 21.3052 0.739409 21.7951 1.69332 22.0013C1.86734 22.04 1.83511 22.0658 1.14546 22.4783C0.268901 23.0004 0.0497607 23.2775 0.00464353 23.9027C-0.0598096 24.8244 0.552495 25.4818 1.48062 25.4754C1.87378 25.4754 1.95113 25.4496 2.51187 25.1338C2.84703 24.9404 3.18218 24.747 3.25953 24.689L3.40777 24.5988L3.30464 24.8759C3.16929 25.2562 3.16929 25.8041 3.31109 26.1457C3.44 26.4679 3.8525 26.8418 4.17476 26.932C4.78707 27.0996 5.43804 26.9255 5.79898 26.4873C6.01812 26.2166 6.33394 25.3078 6.26949 25.1015C6.19214 24.8566 6.0439 24.7406 5.77964 24.7406C5.46382 24.7406 5.31558 24.8888 5.18667 25.3464C5.01265 25.9265 4.70972 26.1199 4.37457 25.8492C4.17476 25.688 4.18765 25.5527 4.49703 24.5408C4.64527 24.0638 4.76128 23.5804 4.76128 23.4773C4.76128 23.2324 4.52925 23.0004 4.27789 23.0004C4.16832 23.0004 3.64625 23.2646 2.87925 23.7093C2.2025 24.1025 1.59019 24.4377 1.5064 24.457C1.22281 24.5279 0.939214 24.1218 1.06167 23.8125C1.08101 23.7609 1.64175 23.4 2.29917 23.0261C2.96304 22.6459 3.5689 22.2785 3.65269 22.2076C3.84605 22.0271 3.84605 21.6533 3.64625 21.4728C3.54957 21.3826 3.20152 21.273 2.56988 21.1312C2.05425 21.0152 1.58375 20.8927 1.51929 20.8605C1.35171 20.7767 1.27437 20.5189 1.34527 20.3255C1.48062 19.9775 1.55796 19.9839 3.73003 20.4867C4.83218 20.738 5.80542 20.9314 5.87632 20.9121C5.95367 20.8927 6.95914 20.332 8.11285 19.6681C9.56949 18.8238 10.2334 18.4048 10.2978 18.2888C10.3816 18.1341 10.3816 18.0632 10.2656 17.5798C10.1044 16.8838 10.1044 16.0974 10.2656 15.4013C10.3816 14.9179 10.3816 14.847 10.2978 14.6923C10.2334 14.5763 9.56949 14.1574 8.11285 13.313C6.95914 12.6492 5.95367 12.0884 5.87632 12.0691C5.80542 12.0498 4.83218 12.2431 3.73003 12.4945C1.55796 12.9972 1.48062 13.0037 1.34527 12.6556C1.27437 12.4623 1.35171 12.2045 1.51929 12.1207C1.58375 12.0884 2.05425 11.966 2.56988 11.85C3.20152 11.7082 3.54957 11.5986 3.64625 11.5084C3.84605 11.3279 3.84605 10.9541 3.64625 10.7736C3.5689 10.7027 2.96304 10.3353 2.29917 9.95504C1.64175 9.58121 1.08101 9.22028 1.06167 9.16871C0.939214 8.85934 1.22281 8.45328 1.5064 8.52418C1.59019 8.54352 2.2025 8.87867 2.87925 9.27184C4.18765 10.0324 4.37457 10.0904 4.61949 9.83258C4.81929 9.61989 4.79996 9.43297 4.47769 8.36949C4.29722 7.77653 4.21343 7.38981 4.24566 7.30602C4.36167 6.9902 4.87085 6.93219 5.02554 7.22223C5.07066 7.29957 5.3607 8.20192 5.67007 9.22028C5.97945 10.2386 6.26304 11.1216 6.29527 11.1732C6.32105 11.2312 7.30074 11.8306 8.47378 12.5074C10.1238 13.4677 10.6459 13.7384 10.8263 13.7449C11.0261 13.7449 11.1228 13.6869 11.5224 13.3195C12.0316 12.849 12.7341 12.4494 13.4302 12.2431C13.7074 12.1593 13.9136 12.0627 13.9652 11.9789C14.0232 11.8822 14.0425 11.2312 14.0425 9.30407V6.75172L13.7074 6.38434C13.5205 6.18453 12.9726 5.59801 12.4957 5.08239C11.2324 3.72887 11.1421 3.6193 11.1421 3.43883C11.1421 3.22614 11.3548 3.01989 11.5804 3.01989C11.7222 3.01989 11.9027 3.16813 12.5279 3.82555C13.2111 4.54098 13.3271 4.63121 13.514 4.63121C13.6558 4.63121 13.7783 4.57965 13.8814 4.47008L14.0425 4.31539V2.7943C14.0425 1.36344 14.049 1.27321 14.1714 1.15074C14.2423 1.07985 14.3841 1.02184 14.4937 1.02184C14.6033 1.02184 14.7451 1.07985 14.816 1.15074C14.9384 1.27321 14.9449 1.36344 14.9449 2.7943V4.31539L15.106 4.47008C15.2091 4.57965 15.3316 4.63121 15.4734 4.63121C15.6603 4.63121 15.7763 4.54098 16.4595 3.82555C17.0847 3.16813 17.2652 3.01989 17.4134 3.01989C17.6326 3.01989 17.8453 3.22614 17.8453 3.43883C17.8453 3.6193 17.755 3.72887 16.4918 5.08239C16.0148 5.59801 15.4669 6.18453 15.2865 6.38434L14.9449 6.75172V7.51227C14.9513 8.33082 14.9835 8.44684 15.2865 8.55641C15.4863 8.63375 15.757 8.55641 15.8859 8.38239C15.9439 8.31149 15.9761 8.07301 15.9761 7.72496V7.17711L17.2974 5.75914C18.0257 4.97926 18.6767 4.22516 18.7476 4.07692C19.057 3.44528 18.8056 2.58805 18.2062 2.22067C17.8453 1.99508 17.291 1.92418 16.9043 2.05309C16.7689 2.09821 16.5046 2.27867 16.3177 2.45914L15.9761 2.78141V1.94352C15.9761 1.1443 15.9632 1.07985 15.7957 0.757581C15.6861 0.53844 15.5121 0.338635 15.338 0.216175C15.0996 0.0485964 14.9964 0.0228151 14.571 0.0034792C14.165 -0.00941142 14.0232 0.00992452 13.7976 0.12594Z" fill="#151515"/>
<path id="Vector_2" d="M23.6397 6.13298C23.124 6.40369 23.0209 6.60994 22.3957 8.65955L21.8285 10.5351L20.0754 11.547C19.1086 12.1013 18.2901 12.559 18.2514 12.559C18.2192 12.559 18.1354 12.501 18.0645 12.4236C17.8453 12.1787 17.0461 11.6953 16.524 11.4826L16.0084 11.2763L15.9762 10.664C15.9375 9.94216 15.8666 9.8197 15.4541 9.8197C15.003 9.8197 14.9449 9.9615 14.9449 10.9863C14.9449 11.5664 14.9707 11.8951 15.0287 11.9789C15.0739 12.0627 15.2801 12.1594 15.5573 12.2431C16.2533 12.4494 16.9559 12.849 17.4651 13.3195C17.8647 13.6869 17.9614 13.7449 18.1612 13.7449C18.3416 13.7385 18.8637 13.4677 20.5137 12.5074C21.6803 11.8306 22.6664 11.2312 22.6922 11.1732C22.7244 11.1217 23.008 10.2386 23.3174 9.21384C23.6332 8.19548 23.9233 7.29314 23.9619 7.2158C24.1166 6.9322 24.6258 6.99021 24.7418 7.30603C24.774 7.39627 24.6903 7.76365 24.5098 8.36951C24.3551 8.88513 24.2262 9.39431 24.2262 9.50388C24.2262 9.7488 24.4582 9.98084 24.7031 9.98084C24.8192 9.98084 25.3477 9.71658 26.1147 9.27185C26.7914 8.87869 27.4102 8.54353 27.4875 8.52419C27.7969 8.44685 28.0869 8.96248 27.8871 9.22029C27.842 9.2783 27.3135 9.60701 26.7076 9.94861C25.2446 10.7865 25.193 10.8316 25.193 11.1345C25.193 11.5148 25.3541 11.6115 26.4176 11.85C26.9332 11.966 27.4037 12.0885 27.4682 12.1207C27.6358 12.2045 27.7131 12.4623 27.6422 12.6556C27.5069 13.0037 27.4295 12.9972 25.2574 12.4945C24.1553 12.2431 23.1821 12.0498 23.1112 12.0691C23.0338 12.0885 22.0283 12.6492 20.8746 13.3131C19.4373 14.1445 18.7541 14.5828 18.6897 14.6924C18.6059 14.847 18.6059 14.9179 18.7219 15.3691C18.883 16.033 18.883 16.8773 18.7219 17.5799C18.6059 18.0568 18.6059 18.1342 18.6897 18.2824C18.7541 18.4049 19.4309 18.8302 20.8746 19.6681C22.0283 20.332 23.0338 20.8927 23.1112 20.9121C23.1821 20.9314 24.1553 20.7381 25.2574 20.4867C27.4295 19.984 27.5069 19.9775 27.6422 20.3256C27.7131 20.5189 27.6358 20.7767 27.4682 20.8605C27.4037 20.8927 26.9332 21.0152 26.4176 21.1312C25.3541 21.3697 25.193 21.4664 25.193 21.8467C25.193 22.1496 25.2446 22.1947 26.7076 23.0326C27.3135 23.3742 27.842 23.7029 27.8871 23.7609C28.0869 24.0187 27.7969 24.5344 27.4875 24.457C27.4102 24.4377 26.7914 24.1025 26.1147 23.7094C24.7998 22.9488 24.6129 22.8908 24.368 23.1486C24.1682 23.3613 24.1875 23.5482 24.5098 24.6117C24.6903 25.2176 24.774 25.5849 24.7418 25.6752C24.6258 25.991 24.1166 26.049 23.9619 25.7654C23.9233 25.6881 23.6332 24.7857 23.3174 23.7674C23.008 22.7426 22.7244 21.8595 22.6922 21.808C22.6664 21.75 21.6803 21.1506 20.5137 20.4738C18.8637 19.5135 18.3416 19.2427 18.1612 19.2363C17.9614 19.2363 17.8647 19.2943 17.4651 19.6617C16.885 20.2031 16.118 20.6092 15.3832 20.7703C15.2865 20.7961 15.1448 20.8734 15.0739 20.9508C14.9514 21.0861 14.9449 21.1699 14.9449 23.6578V26.2295L15.2865 26.5969C15.467 26.7967 16.0149 27.3832 16.4918 27.8988C17.7551 29.2523 17.8453 29.3619 17.8453 29.5424C17.8453 29.7551 17.6326 29.9613 17.4135 29.9613C17.2653 29.9613 17.0848 29.8131 16.4596 29.1556C15.7764 28.4402 15.6604 28.35 15.4735 28.35C15.3317 28.35 15.2092 28.4015 15.1061 28.5111L14.9449 28.6658V30.1869C14.9449 31.6177 14.9385 31.708 14.816 31.8304C14.6485 31.998 14.3391 31.998 14.1715 31.8304C14.049 31.708 14.0426 31.6177 14.0426 30.1869V28.6658L13.8815 28.5111C13.7783 28.4015 13.6559 28.35 13.5141 28.35C13.3272 28.35 13.2112 28.4402 12.528 29.1556C11.9028 29.8131 11.7223 29.9613 11.5805 29.9613C11.3549 29.9613 11.1422 29.7551 11.1422 29.5424C11.1422 29.3619 11.2324 29.2523 12.4957 27.8988C12.9727 27.3832 13.5205 26.7967 13.7074 26.5969L14.0426 26.2295V23.6578C14.0426 21.1699 14.0362 21.0861 13.9137 20.9508C13.8428 20.8734 13.701 20.7961 13.6043 20.7703C12.8696 20.6092 12.1026 20.2031 11.5225 19.6617C11.1229 19.2943 11.0262 19.2363 10.8264 19.2363C10.6459 19.2427 10.1239 19.5135 8.47385 20.4738C7.3008 21.1506 6.32112 21.75 6.29534 21.8015C6.26311 21.8531 6.15354 22.1754 6.05041 22.5105C5.89573 23.0197 5.87639 23.1615 5.92795 23.3226C6.01174 23.5482 6.15998 23.6449 6.43069 23.6449C6.71428 23.6449 6.84963 23.4709 7.01721 22.923L7.15901 22.4525L8.9508 21.4148L10.749 20.3771L10.8973 20.5318C11.1551 20.8025 11.9221 21.2795 12.4635 21.4986L12.9791 21.7049L12.992 23.7545L13.0114 25.8041L11.6836 27.222C10.9553 28.0019 10.3043 28.756 10.2334 28.8978C9.93694 29.5359 10.1819 30.3931 10.7813 30.7605C11.1422 30.9861 11.6965 31.057 12.0832 30.9281C12.2186 30.883 12.4828 30.7025 12.6698 30.522L13.0114 30.1998V31.0377C13.0114 31.8369 13.0242 31.9013 13.1918 32.2236C13.3014 32.4427 13.4754 32.6426 13.6494 32.765C13.9073 32.9455 13.9653 32.9584 14.4938 32.9584C15.0223 32.9584 15.0803 32.9455 15.3381 32.765C15.5121 32.6426 15.6862 32.4427 15.7957 32.2236C15.9633 31.9013 15.9762 31.8369 15.9762 31.0377V30.1998L16.3178 30.522C16.5047 30.7025 16.769 30.883 16.9043 30.9281C17.291 31.057 17.8453 30.9861 18.2063 30.7605C18.8057 30.3931 19.0506 29.5359 18.7541 28.8978C18.6832 28.756 18.0323 28.0019 17.3039 27.222L15.9762 25.8041L15.9955 23.7545L16.0084 21.7049L16.524 21.4986C17.0655 21.2795 17.8324 20.8025 18.0903 20.5318L18.2385 20.3771L20.0367 21.4084L21.8285 22.4461L22.3893 24.2894C22.6987 25.3013 23.0209 26.2359 23.1047 26.3648C23.3496 26.7515 23.7041 26.9449 24.2133 26.9836C24.7096 27.0158 24.9803 26.932 25.3348 26.6162C25.7473 26.2552 25.902 25.5592 25.7086 24.9726C25.6699 24.8437 25.6442 24.7213 25.6571 24.7019C25.6764 24.689 25.9987 24.8566 26.3789 25.0758C27.0428 25.456 27.0944 25.4754 27.5069 25.4754C28.0031 25.4754 28.3576 25.3271 28.6412 24.9855C28.9248 24.6504 29.0151 24.3732 28.9828 23.9285C28.9442 23.2775 28.7315 23.0068 27.842 22.4783C27.1588 22.0658 27.1201 22.04 27.2942 22.0013C27.6615 21.924 28.0354 21.7629 28.2287 21.6017C28.841 21.0797 28.8668 19.9646 28.2739 19.4103C28.0612 19.2105 27.5842 19.0107 27.3199 19.0043C27.1975 19.0043 26.25 19.1912 25.2123 19.4297L23.3303 19.8615L21.6545 18.9011C20.7328 18.3726 19.9336 17.9086 19.8756 17.8699C19.7918 17.8054 19.7854 17.7152 19.8563 17.1416C19.9143 16.6388 19.9143 16.3424 19.8563 15.8396C19.7854 15.266 19.7918 15.1758 19.8756 15.1113C19.9336 15.0726 20.7328 14.6086 21.6545 14.0801L23.3303 13.1197L25.2123 13.5515C26.25 13.79 27.1975 13.9769 27.3199 13.9769C27.5842 13.9705 28.0612 13.7707 28.2739 13.5709C28.8668 13.0166 28.841 11.9015 28.2287 11.3795C28.0354 11.2183 27.6615 11.0572 27.2942 10.9799C27.1201 10.9412 27.1588 10.9154 27.842 10.5029C28.7186 9.98084 28.9377 9.71013 28.9828 9.07849C29.0473 8.15681 28.435 7.49939 27.5069 7.50584C27.1137 7.50584 27.0364 7.53162 26.4756 7.84744C26.1405 8.0408 25.8053 8.23416 25.728 8.29216L25.5797 8.3824L25.6828 8.10525C25.9858 7.26091 25.6442 6.3908 24.8901 6.06853C24.5549 5.93318 23.9684 5.95896 23.6397 6.13298Z" fill="#151515"/>
<path id="Vector_3" d="M13.9783 13.6611C12.483 13.9125 11.4002 15.4336 11.6516 16.9224C11.8127 17.857 12.3992 18.6627 13.2049 19.0558C14.9709 19.9131 17.0076 18.8625 17.3363 16.9224C17.4652 16.149 17.2074 15.2338 16.6725 14.5957C16.0859 13.8867 14.9516 13.4935 13.9783 13.6611ZM15.1836 14.7826C16.26 15.2338 16.666 16.5615 16.015 17.5025C15.2609 18.5982 13.727 18.5982 12.9729 17.5025C11.9674 16.0459 13.5465 14.0994 15.1836 14.7826Z" fill="#151515"/>
</g>
</svg>
