<svg width="42" height="30" viewBox="0 0 42 30" fill="none" xmlns="http://www.w3.org/2000/svg">
<g id="Black">
<path id="Vector" d="M17.9624 0.0459729C16.8883 0.13777 14.8596 0.495778 13.6479 0.807887C7.88306 2.27664 3.35747 5.48035 1.2186 9.61121C-0.406201 12.7598 -0.406201 16.5786 1.2186 19.7272C3.69712 24.519 9.30591 27.9889 16.3651 29.0997C17.5309 29.2833 18.0266 29.3016 20.5786 29.3016C23.8741 29.3016 24.9573 29.1823 27.5 28.5397C33.9442 26.8874 38.837 23.0686 40.5352 18.3594C41.3522 16.0829 41.3522 13.2555 40.5352 10.979C38.479 5.25086 31.6309 0.890504 23.4334 0.0735119C22.5706 -0.00910526 18.8344 -0.0274646 17.9624 0.0459729ZM22.2768 1.57898C25.7559 1.72586 29.5747 2.7907 32.4938 4.42468C35.0458 5.85671 37.2213 7.92214 38.378 10.0059C39.2133 11.5298 39.5805 12.9343 39.5805 14.6692C39.5805 17.5608 38.4422 19.9751 35.9821 22.3343C32.044 26.1163 25.9762 28.0807 19.1833 27.7778C13.6112 27.53 8.52563 25.5563 5.17505 22.3343C2.71489 19.9751 1.57661 17.5608 1.57661 14.6692C1.57661 11.7776 2.71489 9.36336 5.17505 7.00418C8.02075 4.26863 11.9864 2.47859 16.769 1.77175C17.7512 1.62488 20.2481 1.46882 20.8081 1.51472C20.9641 1.5239 21.625 1.56062 22.2768 1.57898Z" fill="#151515"/>
<path id="Vector_2" d="M18.4581 3.06607C16.8976 3.34146 15.0524 4.11255 13.7948 5.00298C12.4821 5.93013 11.0409 7.53657 10.2606 8.92271L9.921 9.52857H8.52568C7.23135 9.52857 7.07529 9.54692 6.38682 9.7856C4.83545 10.3272 3.75225 11.4104 3.21064 12.9618C2.99033 13.5952 2.95361 13.8522 2.95361 14.6692C2.95361 15.4862 2.99033 15.7432 3.21064 16.3766C3.64209 17.6159 4.4958 18.6165 5.60654 19.204C6.59795 19.718 7.04775 19.8098 8.5624 19.8098H9.921L10.2606 20.4157C11.3806 22.426 13.2257 24.1702 15.3187 25.2167C17.0077 26.0612 18.5866 26.4192 20.5786 26.4192C23.0847 26.4192 25.1501 25.795 27.2247 24.4272C28.5466 23.5459 30.0888 21.8661 30.8966 20.4157L31.2362 19.8098H32.6132C33.8433 19.8098 34.0728 19.7823 34.6878 19.5803C36.2667 19.0479 37.3958 17.9372 37.9466 16.3766C38.1669 15.7432 38.2036 15.4862 38.2036 14.6692C38.2036 13.8522 38.1669 13.5952 37.9466 12.9618C37.405 11.4196 36.3126 10.3272 34.7704 9.7856C34.0819 9.54692 33.9259 9.52857 32.6315 9.52857H31.2362L30.8966 8.92271C30.1163 7.52739 28.6751 5.93013 27.3624 5.00298C26.0405 4.06665 24.278 3.34146 22.6349 3.05689C21.6526 2.88247 19.422 2.89165 18.4581 3.06607ZM21.6802 4.51646C23.1214 4.62661 24.9206 5.28755 26.3159 6.22388C27.2247 6.83892 28.2987 7.89458 28.9229 8.79419L29.4003 9.48267L24.994 9.51021C22.5614 9.51939 18.5958 9.51939 16.1724 9.51021L11.7661 9.48267L12.1884 8.84009C13.4276 6.98579 15.7042 5.39771 18.0083 4.78267C18.8253 4.56235 20.2481 4.38794 20.7622 4.44302C20.8907 4.46138 21.3038 4.48892 21.6802 4.51646ZM27.9224 14.6692V18.3411H18.1276C12.0415 18.3411 8.08506 18.3043 7.68115 18.2493C7.33232 18.1942 6.82744 18.0565 6.56123 17.928C5.91865 17.6342 5.12002 16.8264 4.80791 16.1655C4.5876 15.6881 4.56006 15.5229 4.56006 14.6692C4.56006 13.8155 4.5876 13.6411 4.80791 13.1821C5.32197 12.0897 6.41436 11.2727 7.58936 11.0983C7.89228 11.0524 12.5923 11.0157 18.0358 11.0065L27.9224 10.9973V14.6692ZM33.4761 11.0891C34.7429 11.2727 35.7526 11.9979 36.2942 13.0903C36.5788 13.6594 36.5972 13.7604 36.5972 14.6692C36.5972 15.5229 36.5696 15.6881 36.3493 16.1655C36.0372 16.8264 35.2386 17.6342 34.596 17.928C33.9167 18.2401 33.0997 18.3411 31.1169 18.3411H29.3911V14.6692V10.9973H31.1169C32.0624 10.9973 33.1181 11.0432 33.4761 11.0891ZM29.2351 20.0944C28.5741 21.2143 27.2339 22.5454 25.9763 23.3348C24.3147 24.3721 22.5706 24.8586 20.5786 24.8586C18.045 24.8586 15.7868 24.0233 13.8499 22.3526C13.244 21.8293 12.271 20.6911 11.9222 20.0944L11.7569 19.8098H20.5786H29.4003L29.2351 20.0944Z" fill="#151515"/>
<path id="Vector_3" d="M32.0991 12.6405C31.3005 13.0077 30.8599 13.742 30.8599 14.6875C30.869 15.9911 31.7503 16.8723 33.063 16.8723C34.3849 16.8723 35.2661 15.9911 35.2661 14.6692C35.2661 13.7145 34.7796 12.9526 33.9626 12.6129C33.4853 12.411 32.5581 12.4293 32.0991 12.6405ZM33.522 14.2102C33.6229 14.3112 33.7056 14.5131 33.7056 14.6692C33.7056 14.8252 33.6229 15.0272 33.522 15.1282C33.421 15.2292 33.219 15.3118 33.063 15.3118C32.9069 15.3118 32.705 15.2292 32.604 15.1282C32.503 15.0272 32.4204 14.8252 32.4204 14.6692C32.4204 14.5131 32.503 14.3112 32.604 14.2102C32.705 14.1092 32.9069 14.0266 33.063 14.0266C33.219 14.0266 33.421 14.1092 33.522 14.2102Z" fill="#151515"/>
</g>
</svg>
